<svg width="617" height="389" viewBox="0 0 617 389" fill="none" xmlns="http://www.w3.org/2000/svg">
<mask id="mask0_4_1589" style="mask-type:luminance" maskUnits="userSpaceOnUse" x="0" y="0" width="617" height="389">
<path d="M616.141 0.85791H0.72818V388.926H616.141V0.85791Z" fill="white"/>
</mask>
<g mask="url(#mask0_4_1589)">
<path d="M616.141 0.85791H0.728203V388.926H616.141V0.85791Z" fill="#FAB5A2"/>
<path d="M525.631 436.638H244.641V335.005C247.14 333.411 249.995 332.463 252.951 332.247C255.907 332.032 258.87 332.554 261.573 333.769C264.277 334.983 266.636 336.85 268.438 339.203C270.24 341.556 271.429 344.32 271.897 347.246C279.539 339.335 289.874 324.743 293.791 301.249C300.32 262.092 300.849 249.15 300.849 249.15H325.626C325.626 249.15 325.227 263.686 330.759 293.155C333.257 306.458 339.211 319.683 344.994 330.189C347.464 325.92 351.012 322.377 355.284 319.914C359.556 317.451 364.401 316.155 369.332 316.157C370.478 316.16 371.623 316.232 372.76 316.372C372.314 313.921 372.513 311.396 373.336 309.044C374.159 306.692 375.579 304.594 377.456 302.955C379.333 301.317 381.603 300.193 384.045 299.695C386.486 299.197 389.015 299.342 391.384 300.114C393.134 294.095 396.306 288.586 400.632 284.05C404.958 279.515 410.312 276.087 416.242 274.055C422.172 272.024 428.503 271.449 434.702 272.379C440.901 273.308 446.784 275.716 451.857 279.398C455.21 278.431 458.73 278.187 462.184 278.682C465.638 279.177 468.947 280.401 471.893 282.271C473.491 278.902 475.831 275.939 478.737 273.603C481.643 271.267 485.04 269.619 488.673 268.782C489.845 259.799 494.237 251.546 501.034 245.557C507.831 239.567 516.57 236.247 525.629 236.214H525.758C535.01 236.247 543.921 239.707 550.772 245.926C557.622 252.145 561.925 260.681 562.849 269.887C562.913 269.887 562.974 269.881 563.036 269.881C567.617 269.882 572.03 271.605 575.4 274.708C578.77 277.812 580.85 282.069 581.227 286.634C585.258 285.559 589.478 285.394 593.581 286.151C597.684 286.907 601.568 288.567 604.95 291.009C608.333 293.451 611.13 296.615 613.139 300.272C615.148 303.928 616.319 307.986 616.566 312.151C619.011 311.118 621.637 310.582 624.291 310.575C626.945 310.568 629.574 311.089 632.024 312.109C634.374 308.379 637.568 305.254 641.349 302.986C645.13 300.718 649.391 299.371 653.788 299.054C658.185 298.736 662.596 299.458 666.663 301.159C670.73 302.861 674.34 305.495 677.201 308.849C680.161 303.658 684.697 299.544 690.151 297.104C695.606 294.664 701.696 294.025 707.538 295.279C713.381 296.532 718.672 299.614 722.645 304.077C726.619 308.54 729.067 314.153 729.636 320.101C730.707 319.929 731.789 319.842 732.874 319.842C735.741 319.839 738.576 320.445 741.191 321.621C743.807 322.796 746.143 324.513 748.045 326.658C752.396 325.529 756.998 325.868 761.136 327.624C764.375 324.748 768.234 322.659 772.412 321.52C776.591 320.381 780.976 320.222 785.226 321.056C789.476 321.89 793.476 323.694 796.914 326.328C800.352 328.962 803.136 332.354 805.048 336.24C805.589 335.796 806.156 335.384 806.746 335.006V436.637L525.631 436.638ZM-36.4764 436.638V236.216C-27.2022 236.217 -18.2589 239.663 -11.3816 245.885C-4.50425 252.107 -0.183098 260.661 0.74361 269.889C0.80732 269.889 0.868515 269.883 0.930557 269.883C5.51166 269.884 9.92505 271.607 13.2948 274.711C16.6646 277.814 18.7444 282.071 19.1215 286.637C23.1527 285.561 27.3725 285.396 31.4755 286.153C35.5784 286.909 39.4618 288.569 42.8444 291.011C46.2269 293.453 49.024 296.617 51.0331 300.274C53.0421 303.931 54.213 307.988 54.4607 312.153C56.9054 311.12 59.5314 310.584 62.1854 310.577C64.8393 310.57 67.4682 311.091 69.9185 312.111C72.2685 308.381 75.4629 305.256 79.2436 302.988C83.0243 300.72 87.2855 299.373 91.6828 299.056C96.0801 298.738 100.49 299.46 104.558 301.161C108.625 302.863 112.235 305.497 115.096 308.851C118.055 303.66 122.591 299.546 128.046 297.106C133.5 294.666 139.59 294.027 145.433 295.28C151.275 296.534 156.567 299.616 160.54 304.079C164.513 308.542 166.962 314.155 167.531 320.103C168.601 319.931 169.684 319.844 170.768 319.844C173.635 319.841 176.47 320.448 179.086 321.623C181.701 322.798 184.037 324.515 185.94 326.66C190.29 325.531 194.893 325.87 199.031 327.626C202.269 324.75 206.128 322.661 210.307 321.522C214.485 320.383 218.871 320.224 223.121 321.058C227.371 321.892 231.371 323.696 234.809 326.33C238.247 328.964 241.031 332.356 242.942 336.242C243.484 335.798 244.051 335.386 244.64 335.008V436.639L-36.4764 436.638Z" fill="url(#paint0_linear_4_1589)"/>
<path d="M524.676 436.637V267.128C534.386 267.131 543.849 270.18 551.734 275.847C559.618 281.513 565.525 289.511 568.622 298.713C571.265 297.976 574.039 297.845 576.739 298.331C579.439 298.816 581.994 299.905 584.214 301.516C586.434 303.128 588.262 305.22 589.56 307.636C590.858 310.053 591.594 312.731 591.712 315.472C598.429 314.636 605.222 316.268 610.826 320.065C611.486 317.842 612.611 315.785 614.126 314.03C615.641 312.276 617.512 310.862 619.614 309.885C621.716 308.907 624.002 308.387 626.32 308.359C628.638 308.331 630.936 308.796 633.061 309.723C637.156 303.281 643.231 298.342 650.374 295.649C657.516 292.955 665.34 292.653 672.669 294.786C679.998 296.92 686.437 301.375 691.018 307.481C695.598 313.588 698.073 321.016 698.071 328.649C698.071 329.366 698.042 330.074 698 330.779C701.593 331.126 705.031 332.413 707.969 334.511C710.906 336.609 713.239 339.444 714.733 342.729C717.815 341.415 721.175 340.884 724.512 341.186C727.85 341.488 731.06 342.613 733.856 344.46C736.652 346.307 738.946 348.818 740.534 351.769C742.122 354.72 742.953 358.018 742.953 361.369C742.953 361.485 742.945 361.599 742.944 361.713C746.245 362.209 749.372 363.511 752.049 365.506C754.726 367.5 756.869 370.124 758.288 373.145C761.719 370.433 765.737 368.56 770.02 367.677C774.303 366.794 778.734 366.924 782.958 368.057C787.182 369.19 791.083 371.294 794.349 374.203C797.615 377.111 800.156 380.743 801.769 384.808C802.874 384.263 804.026 383.821 805.212 383.486V436.638L524.676 436.637ZM244.126 436.637V383.486C248.719 382.192 253.62 382.558 257.97 384.52C259.844 381.248 262.549 378.53 265.811 376.64C269.073 374.75 272.777 373.755 276.547 373.756C277.077 373.756 277.602 373.775 278.122 373.813C280.571 371.27 284.982 366.006 288.935 357.71C295.413 344.113 301.352 318.327 302.873 298.184C305.769 259.844 305.717 249.533 305.717 249.533H320.29C320.29 249.533 320.276 260.628 323.054 300.294C324.666 323.315 331.625 347.139 341.014 363.081C341.534 363.964 342.072 364.822 342.628 365.655C344.056 363.149 346.122 361.065 348.617 359.617C351.111 358.168 353.945 357.405 356.829 357.406C357.772 357.408 358.713 357.49 359.642 357.652C358.422 354.148 358.236 350.368 359.106 346.761C359.976 343.154 361.864 339.874 364.547 337.311C367.23 334.748 370.593 333.011 374.235 332.307C377.878 331.602 381.646 331.961 385.091 333.339C383.705 327.165 384.29 320.711 386.763 314.887C389.237 309.063 393.474 304.16 398.88 300.87C404.285 297.58 410.586 296.068 416.895 296.546C423.205 297.024 429.206 299.468 434.054 303.535C434.473 299.45 436.124 295.589 438.787 292.463C441.451 289.337 445.002 287.094 448.969 286.032C452.936 284.97 457.132 285.139 461.001 286.515C464.87 287.892 468.23 290.413 470.634 293.742C471.99 290.842 474.374 288.55 477.325 287.309C480.276 286.069 483.583 285.969 486.603 287.03C490.868 280.886 496.557 275.866 503.185 272.401C509.813 268.935 517.181 267.127 524.66 267.13V436.639L244.126 436.637ZM-36.4098 436.637V267.128C-26.7005 267.131 -17.2367 270.18 -9.3525 275.847C-1.46825 281.513 4.43893 289.511 7.53645 298.713C10.1787 297.976 12.9533 297.845 15.6532 298.331C18.353 298.816 20.9083 299.905 23.1283 301.516C25.3483 303.128 27.1756 305.22 28.4738 307.636C29.772 310.053 30.5076 312.731 30.6257 315.472C37.3432 314.636 44.1355 316.268 49.7401 320.065C50.4005 317.842 51.5253 315.785 53.0403 314.03C54.5553 312.276 56.4257 310.862 58.5278 309.885C60.63 308.907 62.9159 308.387 65.2341 308.359C67.5523 308.331 69.85 308.796 71.975 309.723C76.0701 303.281 82.1454 298.342 89.2879 295.649C96.4303 292.955 104.254 292.653 111.583 294.786C118.912 296.92 125.351 301.375 129.932 307.481C134.512 313.588 136.987 321.016 136.985 328.649C136.985 329.366 136.956 330.074 136.914 330.779C140.507 331.126 143.945 332.413 146.883 334.511C149.82 336.609 152.153 339.444 153.647 342.729C156.729 341.414 160.089 340.884 163.426 341.186C166.764 341.488 169.974 342.613 172.77 344.46C175.566 346.306 177.861 348.818 179.448 351.769C181.036 354.719 181.867 358.018 181.867 361.369C181.867 361.485 181.86 361.599 181.858 361.713C185.159 362.209 188.287 363.511 190.963 365.506C193.64 367.5 195.783 370.124 197.203 373.145C200.634 370.433 204.651 368.56 208.935 367.677C213.218 366.794 217.648 366.924 221.872 368.057C226.096 369.19 229.997 371.294 233.263 374.203C236.529 377.111 239.071 380.743 240.684 384.808C241.789 384.263 242.941 383.821 244.126 383.486V436.638L-36.4098 436.637Z" fill="url(#paint1_linear_4_1589)"/>
</g>
<defs>
<linearGradient id="paint0_linear_4_1589" x1="385.135" y1="436.639" x2="385.135" y2="236.214" gradientUnits="userSpaceOnUse">
<stop stop-color="#FAB5A2"/>
<stop offset="1" stop-color="white"/>
</linearGradient>
<linearGradient id="paint1_linear_4_1589" x1="384.401" y1="436.639" x2="384.401" y2="249.533" gradientUnits="userSpaceOnUse">
<stop stop-color="#F28364"/>
<stop offset="0.844" stop-color="white"/>
<stop offset="1" stop-color="white"/>
</linearGradient>
</defs>
</svg>
