<svg width="300" height="806" viewBox="0 0 300 806" fill="none" xmlns="http://www.w3.org/2000/svg">
<mask id="mask0_1_37" style="mask-type:luminance" maskUnits="userSpaceOnUse" x="1" y="1" width="1198" height="805">
<path d="M1198.33 1.77759H1.41626V805.847H1198.33V1.77759Z" fill="white"/>
</mask>
<g mask="url(#mask0_1_37)">
<path d="M1198.33 1.77759H1.41626V805.847H1198.33V1.77759Z" fill="#FAB5A2"/>
<path d="M1022.3 904.705H475.801V694.123C480.661 690.821 486.214 688.856 491.963 688.409C497.712 687.963 503.475 689.045 508.732 691.562C513.991 694.078 518.579 697.946 522.084 702.822C525.588 707.697 527.901 713.424 528.811 719.487C543.674 703.095 563.774 672.861 571.393 624.182C584.091 543.049 585.12 516.234 585.12 516.234H633.308C633.308 516.234 632.532 546.352 643.291 607.411C648.15 634.975 659.73 662.377 670.977 684.145C675.781 675.299 682.681 667.958 690.99 662.855C699.299 657.752 708.722 655.067 718.312 655.071C720.541 655.077 722.768 655.226 724.979 655.516C724.112 650.438 724.499 645.206 726.099 640.333C727.7 635.46 730.462 631.112 734.112 627.716C737.763 624.323 742.178 621.994 746.927 620.962C751.675 619.93 756.593 620.23 761.201 621.83C764.604 609.359 770.773 597.944 779.187 588.546C787.601 579.149 798.014 572.047 809.547 567.836C821.08 563.628 833.393 562.437 845.45 564.364C857.506 566.289 868.948 571.278 878.814 578.907C885.336 576.903 892.182 576.398 898.899 577.423C905.617 578.449 912.053 580.985 917.782 584.86C920.89 577.879 925.441 571.74 931.093 566.9C936.745 562.06 943.352 558.645 950.418 556.911C952.697 538.298 961.239 521.198 974.458 508.789C987.678 496.378 1004.67 489.499 1022.29 489.431H1022.54C1040.54 489.499 1057.87 496.668 1071.19 509.554C1084.52 522.439 1092.88 540.126 1094.68 559.2C1094.81 559.2 1094.93 559.188 1095.05 559.188C1103.96 559.19 1112.54 562.76 1119.09 569.189C1125.65 575.621 1129.69 584.441 1130.43 593.9C1138.27 591.672 1146.47 591.33 1154.45 592.899C1162.43 594.465 1169.99 597.905 1176.56 602.965C1183.14 608.024 1188.58 614.58 1192.49 622.157C1196.4 629.733 1198.68 638.141 1199.16 646.77C1203.91 644.63 1209.02 643.52 1214.18 643.505C1219.34 643.491 1224.46 644.57 1229.22 646.683C1233.79 638.955 1240 632.48 1247.36 627.781C1254.71 623.081 1263 620.29 1271.55 619.634C1280.1 618.975 1288.68 620.471 1296.59 623.995C1304.5 627.522 1311.52 632.979 1317.08 639.929C1322.84 629.173 1331.66 620.649 1342.27 615.593C1352.88 610.538 1364.72 609.214 1376.09 611.812C1387.45 614.408 1397.74 620.794 1405.47 630.041C1413.2 639.288 1417.96 650.919 1419.07 663.243C1421.15 662.886 1423.25 662.706 1425.36 662.706C1430.94 662.7 1436.45 663.955 1441.54 666.392C1446.63 668.827 1451.17 672.384 1454.87 676.829C1463.33 674.489 1472.28 675.192 1480.33 678.83C1486.63 672.871 1494.13 668.543 1502.26 666.183C1510.39 663.823 1518.92 663.493 1527.18 665.221C1535.45 666.949 1543.23 670.687 1549.91 676.145C1556.6 681.602 1562.01 688.631 1565.73 696.682C1566.79 695.762 1567.89 694.909 1569.04 694.126V904.703L1022.3 904.705ZM-70.9427 904.705V489.435C-52.9054 489.437 -35.5116 496.577 -22.136 509.469C-8.76029 522.36 -0.356102 540.084 1.44625 559.204C1.57016 559.204 1.68918 559.192 1.80984 559.192C10.7196 559.194 19.3032 562.764 25.857 569.196C32.4109 575.625 36.4559 584.445 37.1893 593.906C45.0296 591.676 53.2366 591.335 61.2165 592.903C69.1962 594.47 76.7491 597.909 83.3279 602.969C89.9065 608.029 95.3465 614.584 99.254 622.161C103.161 629.739 105.439 638.145 105.92 646.775C110.675 644.634 115.782 643.524 120.944 643.509C126.106 643.495 131.219 644.574 135.984 646.688C140.555 638.959 146.767 632.484 154.12 627.785C161.474 623.086 169.761 620.295 178.313 619.638C186.866 618.979 195.442 620.475 203.354 623.999C211.264 627.526 218.285 632.984 223.85 639.933C229.605 629.177 238.427 620.653 249.036 615.597C259.643 610.542 271.488 609.218 282.852 611.814C294.214 614.412 304.506 620.798 312.233 630.045C319.96 639.293 324.724 650.923 325.83 663.247C327.911 662.89 330.018 662.71 332.126 662.71C337.702 662.704 343.216 663.962 348.303 666.396C353.389 668.831 357.933 672.388 361.634 676.833C370.094 674.494 379.046 675.196 387.094 678.834C393.392 672.875 400.897 668.547 409.025 666.187C417.151 663.827 425.681 663.498 433.947 665.226C442.213 666.954 449.992 670.691 456.679 676.149C463.365 681.607 468.78 688.635 472.497 696.686C473.551 695.767 474.654 694.913 475.799 694.13V904.707L-70.9427 904.705Z" fill="url(#paint0_linear_1_37)"/>
<path d="M1020.44 904.703V553.484C1039.32 553.49 1057.73 559.807 1073.06 571.549C1088.4 583.289 1099.89 599.861 1105.91 618.927C1111.05 617.4 1116.45 617.129 1121.7 618.136C1126.95 619.141 1131.92 621.397 1136.23 624.735C1140.55 628.075 1144.11 632.41 1146.63 637.416C1149.16 642.424 1150.59 647.972 1150.82 653.652C1163.88 651.919 1177.09 655.301 1187.99 663.168C1189.28 658.562 1191.46 654.3 1194.41 650.664C1197.36 647.03 1201 644.1 1205.08 642.075C1209.17 640.049 1213.62 638.972 1218.13 638.914C1222.63 638.856 1227.1 639.819 1231.24 641.74C1239.2 628.392 1251.02 618.159 1264.91 612.579C1278.8 606.997 1294.02 606.371 1308.27 610.791C1322.52 615.212 1335.05 624.443 1343.96 637.094C1352.86 649.748 1357.68 665.139 1357.67 680.954C1357.67 682.44 1357.62 683.907 1357.54 685.367C1364.52 686.086 1371.21 688.753 1376.93 693.1C1382.64 697.447 1387.17 703.321 1390.08 710.128C1396.07 707.405 1402.61 706.305 1409.1 706.93C1415.59 707.556 1421.83 709.887 1427.27 713.714C1432.71 717.541 1437.17 722.744 1440.26 728.858C1443.35 734.973 1444.97 741.806 1444.97 748.749C1444.97 748.99 1444.95 749.226 1444.95 749.462C1451.37 750.49 1457.45 753.187 1462.66 757.321C1467.86 761.453 1472.03 766.889 1474.79 773.149C1481.46 767.53 1489.28 763.649 1497.61 761.819C1505.94 759.99 1514.56 760.259 1522.77 762.607C1530.99 764.954 1538.57 769.314 1544.93 775.341C1551.28 781.366 1556.22 788.892 1559.36 797.314C1561.51 796.185 1563.75 795.269 1566.05 794.575V904.705L1020.44 904.703ZM474.799 904.703V794.575C483.732 791.894 493.264 792.652 501.724 796.718C505.369 789.938 510.63 784.307 516.974 780.39C523.319 776.474 530.523 774.413 537.855 774.415C538.886 774.415 539.907 774.454 540.918 774.533C545.681 769.264 554.26 758.357 561.948 741.168C574.547 712.995 586.098 659.567 589.056 617.831C594.688 538.391 594.587 517.027 594.587 517.027H622.93C622.93 517.027 622.903 540.016 628.306 622.203C631.441 669.902 644.976 719.265 663.236 752.296C664.248 754.126 665.294 755.904 666.375 757.63C669.153 752.437 673.171 748.119 678.023 745.119C682.874 742.117 688.386 740.536 693.995 740.538C695.829 740.542 697.659 740.712 699.466 741.048C697.093 733.787 696.731 725.955 698.423 718.482C700.115 711.008 703.787 704.212 709.005 698.902C714.224 693.591 720.764 689.992 727.848 688.533C734.933 687.073 742.261 687.816 748.961 690.672C746.266 677.879 747.404 664.507 752.213 652.439C757.025 640.372 765.265 630.213 775.78 623.397C786.292 616.58 798.546 613.447 810.817 614.437C823.089 615.428 834.76 620.492 844.189 628.918C845.004 620.454 848.215 612.454 853.394 605.977C858.576 599.5 865.482 594.853 873.197 592.653C880.913 590.452 889.074 590.802 896.598 593.653C904.123 596.506 910.658 601.73 915.334 608.627C917.971 602.619 922.607 597.87 928.347 595.298C934.086 592.729 940.518 592.522 946.392 594.72C954.687 581.99 965.751 571.589 978.642 564.409C991.533 557.228 1005.86 553.482 1020.41 553.488V904.707L474.799 904.703ZM-70.8132 904.703V553.484C-51.9297 553.49 -33.5236 559.807 -18.1896 571.549C-2.8556 583.289 8.63325 599.861 14.6576 618.927C19.7965 617.4 25.1928 617.129 30.4438 618.136C35.6946 619.141 40.6644 621.397 44.9821 624.735C49.2998 628.075 52.8537 632.41 55.3785 637.416C57.9034 642.424 59.3341 647.972 59.5638 653.652C72.6286 651.919 85.8389 655.301 96.7393 663.168C98.0237 658.562 100.211 654.3 103.158 650.664C106.104 647.03 109.742 644.1 113.83 642.075C117.919 640.049 122.365 638.972 126.873 638.914C131.382 638.856 135.851 639.819 139.984 641.74C147.948 628.392 159.764 618.159 173.656 612.579C187.547 606.997 202.763 606.371 217.017 610.791C231.271 615.212 243.794 624.443 252.704 637.094C261.612 649.748 266.425 665.139 266.421 680.954C266.421 682.44 266.365 683.907 266.283 685.367C273.271 686.086 279.958 688.753 285.672 693.1C291.384 697.447 295.922 703.321 298.827 710.128C304.821 707.403 311.356 706.305 317.846 706.93C324.338 707.556 330.582 709.887 336.019 713.714C341.457 717.539 345.921 722.744 349.007 728.858C352.096 734.971 353.712 741.806 353.712 748.749C353.712 748.99 353.699 749.226 353.695 749.462C360.115 750.49 366.198 753.187 371.403 757.321C376.609 761.453 380.777 766.889 383.539 773.149C390.212 767.53 398.025 763.649 406.357 761.819C414.687 759.99 423.302 760.259 431.518 762.607C439.733 764.954 447.32 769.314 453.672 775.341C460.024 781.366 464.968 788.892 468.105 797.314C470.254 796.185 472.495 795.269 474.799 794.575V904.705L-70.8132 904.703Z" fill="url(#paint1_linear_1_37)"/>
</g>
<defs>
<linearGradient id="paint0_linear_1_37" x1="749.047" y1="904.707" x2="749.047" y2="489.431" gradientUnits="userSpaceOnUse">
<stop stop-color="#FAB5A2"/>
<stop offset="1" stop-color="white"/>
</linearGradient>
<linearGradient id="paint1_linear_1_37" x1="747.619" y1="904.707" x2="747.619" y2="517.027" gradientUnits="userSpaceOnUse">
<stop stop-color="#F28364"/>
<stop offset="0.844" stop-color="white"/>
<stop offset="1" stop-color="white"/>
</linearGradient>
</defs>
</svg>
